# xmcd
#
# Track frame offsets:
#	150
#	19492
#	34847
#	50812
#	66712
#	86367
#	102222
#	119925
#	133502
#	149725
#	163625
#	179112
#	194585
#	214597
#
# Disc length: 3136 seconds
#
# Revision: 8
# Processed by: cddbd v1.5.2PL0 Copyright (c) Steve Scherf et al.
# Submitted via: EasyCDDAExtractor 15.3.0.1
#
DISCID=e80c3e0e
DTITLE=Mariah Carey - E=MC²
DYEAR=2008
DGENRE=R&B/Pop
TTITLE0=Migrate (Featuring T-Pain)
TTITLE1=Touch My Body
TTITLE2=Cruise Control (Featuring Damian Marley)
TTITLE3=I Stay In Love
TTITLE4=Side Effects (Featuring Young Jeezy)
TTITLE5=I'm That Chick
TTITLE6=Love Story
TTITLE7=I'll Be Lovin' U Long Time
TTITLE8=Last Kiss
TTITLE9=Thanx 4 Nothin'
TTITLE10=O.O.C.
TTITLE11=For The Record
TTITLE12=Bye Bye
TTITLE13=I Wish You Well
EXTD=
EXTT0=
EXTT1=
EXTT2=
EXTT3=
EXTT4=
EXTT5=
EXTT6=
EXTT7=
EXTT8=
EXTT9=
EXTT10=
EXTT11=
EXTT12=
EXTT13=
PLAYORDER=
